<?xml version="1.0" encoding="utf-8"?>
<!-- Generator: Adobe Illustrator 26.5.0, SVG Export Plug-In . SVG Version: 6.00 Build 0)  -->
<svg version="1.1" xmlns="http://www.w3.org/2000/svg" xmlns:xlink="http://www.w3.org/1999/xlink" x="0px" y="0px"
	 viewBox="0 0 1235 440" style="enable-background:new 0 0 1235 440;" xml:space="preserve">
<style type="text/css">
	
		.st0{clip-path:url(#SVGID_00000160150924566451430830000009170836891794374545_);fill:none;stroke:#FFFFFF;stroke-width:70.2375;stroke-miterlimit:5;}
	
		.st1{clip-path:url(#SVGID_00000071518302863207565270000016267077253052568746_);fill:none;stroke:#0065FF;stroke-width:65.1845;stroke-miterlimit:5;}
	
		.st2{clip-path:url(#SVGID_00000075140216104499321360000015693200871610800001_);fill:none;stroke:#FFFFFF;stroke-width:62.6579;stroke-miterlimit:5;}
	.st3{clip-path:url(#SVGID_00000072244831785738252240000015254568646676915858_);}
	.st4{clip-path:url(#SVGID_00000119801785848228756860000002274098178710025373_);fill:#0065FF;}
	.st5{clip-path:url(#SVGID_00000115516826068515357540000005766909980556855705_);}
	.st6{clip-path:url(#SVGID_00000127026341984194920400000001419533271738697114_);fill:#0065FF;}
	.st7{clip-path:url(#SVGID_00000159439268732806543020000010770328262838300550_);}
	.st8{clip-path:url(#SVGID_00000111171036138740129600000012158610278121004677_);fill:#0065FF;}
	.st9{clip-path:url(#SVGID_00000170258971247267068760000000420065742081611455_);}
	.st10{clip-path:url(#SVGID_00000036971852206685988790000013697184176790451129_);fill:#0065FF;}
	.st11{clip-path:url(#SVGID_00000115498481196553843980000005661903530531910556_);}
	.st12{clip-path:url(#SVGID_00000134953457675480650700000003250285273109570470_);fill:#0065FF;}
	.st13{clip-path:url(#SVGID_00000183244071666744062920000000404179765559199396_);fill:#0065FF;}
	
		.st14{clip-path:url(#SVGID_00000183244071666744062920000000404179765559199396_);fill:none;stroke:#FFFFFF;stroke-width:24;stroke-miterlimit:5;}
	.st15{clip-path:url(#SVGID_00000021088017734061519790000002109536615638007950_);}
	.st16{clip-path:url(#SVGID_00000068663334427085701680000001717835943216181418_);fill:#FFFFFF;}
	.st17{clip-path:url(#SVGID_00000157298496213824293860000004394306766667253405_);}
	.st18{clip-path:url(#SVGID_00000039130286637537387280000013631959479499974799_);fill:#FFFFFF;}
	.st19{clip-path:url(#SVGID_00000127744107958155684700000009480868343121113517_);}
	.st20{clip-path:url(#SVGID_00000078004771458659529450000008431752038324037820_);fill:#FFFFFF;}
	.st21{clip-path:url(#SVGID_00000138563505494063641800000016974305925365968051_);}
	.st22{clip-path:url(#SVGID_00000172430592478871651780000012019677890597421722_);fill:#FFFFFF;}
	.st23{clip-path:url(#SVGID_00000121992021780876456370000004006107918091921053_);}
	.st24{clip-path:url(#SVGID_00000063634411414987521920000003212971164892558007_);fill:#FFFFFF;}
	.st25{clip-path:url(#SVGID_00000062175068095827889740000015377749523388686216_);}
	.st26{clip-path:url(#SVGID_00000111165774565853891380000007092444971814214069_);fill:#FFFFFF;}
	.st27{clip-path:url(#SVGID_00000124882596028137452950000014827503813933609910_);}
	.st28{clip-path:url(#SVGID_00000084528744745573167590000006537404861415793314_);fill:#FFFFFF;}
	.st29{clip-path:url(#SVGID_00000166674432698775663380000002518972610557580961_);}
	.st30{clip-path:url(#SVGID_00000047742001275192393340000000508628826089476020_);fill:#FFFFFF;}
	.st31{clip-path:url(#SVGID_00000170274170296931442270000013387467638332750008_);}
	.st32{clip-path:url(#SVGID_00000092451784079643290820000016097431894277576093_);fill:#FFFFFF;}
	.st33{clip-path:url(#SVGID_00000176760624115833294180000012925001953893320346_);}
	.st34{clip-path:url(#SVGID_00000096052174335194353490000007799755148077182637_);fill:#FFFFFF;}
	.st35{clip-path:url(#SVGID_00000044897125472127103930000015599657523228544667_);}
	.st36{clip-path:url(#SVGID_00000036971832867780092980000011049826615341408937_);fill:#FFFFFF;}
	.st37{clip-path:url(#SVGID_00000013156504594185113690000008906853588241453208_);}
	.st38{clip-path:url(#SVGID_00000143618974600951949230000009226531450194759847_);fill:#FFFFFF;}
	.st39{clip-path:url(#SVGID_00000037682978768369844150000006937225152002134965_);}
	.st40{clip-path:url(#SVGID_00000165926995075781782570000004896272068890723760_);fill:#FFFFFF;}
	.st41{clip-path:url(#SVGID_00000122708704942655130960000004267254643914588064_);}
	.st42{clip-path:url(#SVGID_00000139283904745903603480000010800293324532888493_);fill:#FFFFFF;}
	.st43{clip-path:url(#SVGID_00000132791540692170587890000015086246437074913968_);}
	.st44{clip-path:url(#SVGID_00000160178902325219505360000012100831019502032795_);fill:#FFFFFF;}
	.st45{clip-path:url(#SVGID_00000167378169601492926460000002883129814560980643_);}
	.st46{clip-path:url(#SVGID_00000015329061001831650730000003653595782769330850_);fill:#FFFFFF;}
	.st47{clip-path:url(#SVGID_00000156549510867261088920000018313787752446309275_);fill:#0065FF;}
	
		.st48{clip-path:url(#SVGID_00000156549510867261088920000018313787752446309275_);fill:none;stroke:#FFFFFF;stroke-width:22;stroke-miterlimit:5;}
	.st49{clip-path:url(#SVGID_00000014609386996212643910000018376161912483948687_);}
	.st50{clip-path:url(#SVGID_00000091728142814323378180000017437651094785737092_);fill:#FFFFFF;}
	.st51{clip-path:url(#SVGID_00000101820283578704106280000017059789099854568073_);}
	.st52{clip-path:url(#SVGID_00000009549999651965284850000016889386749360478133_);fill:#FFFFFF;}
	.st53{clip-path:url(#SVGID_00000071557873474184639580000004319981230008859311_);}
	.st54{clip-path:url(#SVGID_00000120558954235356371970000013812705528471663027_);fill:#FFFFFF;}
	.st55{clip-path:url(#SVGID_00000025411708953963631320000011979820041994111382_);}
	.st56{clip-path:url(#SVGID_00000013183795676596882870000012726151702677741213_);fill:#FFFFFF;}
	.st57{clip-path:url(#SVGID_00000062180579784986848300000011525035951687402666_);}
	.st58{clip-path:url(#SVGID_00000057115813367824960720000008649121737826716077_);fill:#FFFFFF;}
	.st59{clip-path:url(#SVGID_00000038377539928326345030000009408831716280925332_);}
	.st60{clip-path:url(#SVGID_00000091712828652073430840000011068593539016751252_);fill:#FFFFFF;}
	.st61{clip-path:url(#SVGID_00000098921955786004581360000002992793564006677643_);}
	.st62{clip-path:url(#SVGID_00000128449403772277236680000012222719118977971079_);fill:#FFFFFF;}
</style>
<g id="Diamond">
	<g>
		<defs>
			<path id="SVGID_1_" d="M623.67,12.43l204.49,107.38c19.08,10.02,29.79,30.97,26.73,52.3l-15.31,106.88
				c-2.21,15.46-11.4,29.05-24.92,36.86l-189.19,109.4c-15.77,9.12-35.21,9.12-50.98,0l-189.19-109.4
				c-13.52-7.82-22.7-21.4-24.92-36.86L345.1,172.11c-3.06-21.34,7.65-42.28,26.73-52.3L576.33,12.43
				C591.15,4.65,608.85,4.65,623.67,12.43z"/>
		</defs>
		<clipPath id="SVGID_00000093896108260867524090000005669436093610163607_">
			<use xlink:href="#SVGID_1_"  style="overflow:visible;"/>
		</clipPath>
		
			<path style="clip-path:url(#SVGID_00000093896108260867524090000005669436093610163607_);fill:none;stroke:#FFFFFF;stroke-width:70.2375;stroke-miterlimit:5;" d="
			M623.67,12.43l204.49,107.38c19.08,10.02,29.79,30.97,26.73,52.3l-15.31,106.88c-2.21,15.46-11.4,29.05-24.92,36.86l-189.19,109.4
			c-15.77,9.12-35.21,9.12-50.98,0l-189.19-109.4c-13.52-7.82-22.7-21.4-24.92-36.86L345.1,172.11
			c-3.06-21.34,7.65-42.28,26.73-52.3L576.33,12.43C591.15,4.65,608.85,4.65,623.67,12.43z"/>
	</g>
	<g>
		<defs>
			<path id="SVGID_00000084504608477179304700000014213809945839974539_" d="M623.45,28.51l189.77,99.51
				c17.83,9.35,27.78,28.97,24.79,48.88l-13.83,91.95c-2.14,14.23-10.64,26.7-23.1,33.9L625.13,404.35
				c-14.62,8.45-32.64,8.45-47.27,0L401.93,302.74c-12.46-7.19-20.96-19.67-23.1-33.9L365,176.9c-2.99-19.91,6.96-39.53,24.79-48.88
				l189.77-99.51C593.3,21.3,609.7,21.3,623.45,28.51z"/>
		</defs>
		<clipPath id="SVGID_00000169535127020582252460000011799926913012220075_">
			<use xlink:href="#SVGID_00000084504608477179304700000014213809945839974539_"  style="overflow:visible;"/>
		</clipPath>
		
			<path style="clip-path:url(#SVGID_00000169535127020582252460000011799926913012220075_);fill:none;stroke:#0065FF;stroke-width:65.1845;stroke-miterlimit:5;" d="
			M623.45,28.51l189.77,99.51c17.83,9.35,27.78,28.97,24.79,48.88l-13.83,91.95c-2.14,14.23-10.64,26.7-23.1,33.9L625.13,404.35
			c-14.62,8.45-32.64,8.45-47.27,0L401.93,302.74c-12.46-7.19-20.96-19.67-23.1-33.9L365,176.9c-2.99-19.91,6.96-39.53,24.79-48.88
			l189.77-99.51C593.3,21.3,609.7,21.3,623.45,28.51z"/>
	</g>
	<g>
		<defs>
			<path id="SVGID_00000085948232229062999610000014696914345852971655_" d="M622.58,39.05l182.58,95.66
				c17.24,9.03,26.81,28.05,23.8,47.28l-12.98,82.75c-2.13,13.57-10.28,25.45-22.18,32.31L624.2,394.9
				c-14.05,8.11-31.36,8.11-45.41,0l-169.6-97.86c-11.9-6.86-20.05-18.74-22.18-32.31l-12.98-82.75
				c-3.02-19.23,6.56-38.24,23.8-47.28l182.58-95.66C593.62,32.13,609.38,32.13,622.58,39.05z"/>
		</defs>
		<clipPath id="SVGID_00000116922853256974196130000017171281215857361076_">
			<use xlink:href="#SVGID_00000085948232229062999610000014696914345852971655_"  style="overflow:visible;"/>
		</clipPath>
		
			<path style="clip-path:url(#SVGID_00000116922853256974196130000017171281215857361076_);fill:none;stroke:#FFFFFF;stroke-width:62.6579;stroke-miterlimit:5;" d="
			M622.58,39.05l182.58,95.66c17.24,9.03,26.81,28.05,23.8,47.28l-12.98,82.75c-2.13,13.57-10.28,25.45-22.18,32.31L624.2,394.9
			c-14.05,8.11-31.36,8.11-45.41,0l-169.6-97.86c-11.9-6.86-20.05-18.74-22.18-32.31l-12.98-82.75
			c-3.02-19.23,6.56-38.24,23.8-47.28l182.58-95.66C593.62,32.13,609.38,32.13,622.58,39.05z"/>
	</g>
</g>
<g id="Church_Logo">
	<g>
		<defs>
			<path id="SVGID_00000091716823887732315080000005583459123205726640_" d="M636,294.59c-0.09,1.39-0.88,1.91-1.58,2.6
				c-2.64,2.43-5.18,4.85-7.82,7.28c-2.99,2.77-2.99,2.86,0.09,5.81c2.64,2.43,5.18,4.85,7.82,7.28c1.58,1.47,2.11,2.77,0.26,4.42
				c-1.58,1.39-2.9,3.64-5.45,1.21c-4.92-4.68-9.93-9.36-14.94-13.95c-1.58-1.39-1.32-2.51,0.09-3.81
				c5.01-4.59,9.93-9.27,14.94-13.87c0.88-0.78,1.85-1.65,3.08-0.69C633.98,291.9,635.74,292.86,636,294.59z"/>
		</defs>
		<use xlink:href="#SVGID_00000091716823887732315080000005583459123205726640_"  style="overflow:visible;fill:#0065FF;"/>
		<clipPath id="SVGID_00000053537946769898491220000008949294986317550520_">
			<use xlink:href="#SVGID_00000091716823887732315080000005583459123205726640_"  style="overflow:visible;"/>
		</clipPath>
		<g style="clip-path:url(#SVGID_00000053537946769898491220000008949294986317550520_);">
			<defs>
				<rect id="SVGID_00000037662841723216231280000008219899243597728676_" x="-249" y="-2228" width="5535" height="3954"/>
			</defs>
			<use xlink:href="#SVGID_00000037662841723216231280000008219899243597728676_"  style="overflow:visible;fill:#0065FF;"/>
			<clipPath id="SVGID_00000153665785023668480260000016056297697064790699_">
				<use xlink:href="#SVGID_00000037662841723216231280000008219899243597728676_"  style="overflow:visible;"/>
			</clipPath>
			
				<rect x="611.8" y="288.91" style="clip-path:url(#SVGID_00000153665785023668480260000016056297697064790699_);fill:#0065FF;" width="25.82" height="37.71"/>
		</g>
	</g>
	<g>
		<defs>
			<path id="SVGID_00000158738753637686364000000011746701201314339991_" d="M570.53,290.43c1.23-0.09,1.76,0.61,2.37,1.13
				c5.01,4.59,9.93,9.27,14.94,13.87c1.49,1.39,1.41,2.43-0.09,3.81c-5.01,4.59-9.93,9.27-14.94,13.87
				c-2.72,2.6-4.04-0.17-5.71-1.47c-1.93-1.56-0.88-2.86,0.44-4.07c2.9-2.69,5.8-5.46,8.79-8.06c1.76-1.56,1.76-2.77,0-4.33
				c-2.9-2.51-5.71-5.2-8.52-7.89c-0.88-0.78-2.37-1.56-1.58-3.03C567.37,292.42,568.86,291.12,570.53,290.43z"/>
		</defs>
		<use xlink:href="#SVGID_00000158738753637686364000000011746701201314339991_"  style="overflow:visible;fill:#0065FF;"/>
		<clipPath id="SVGID_00000179613196679883695650000010859532245258920121_">
			<use xlink:href="#SVGID_00000158738753637686364000000011746701201314339991_"  style="overflow:visible;"/>
		</clipPath>
		<g style="clip-path:url(#SVGID_00000179613196679883695650000010859532245258920121_);">
			<defs>
				<rect id="SVGID_00000128484402550973452790000012678183356668462524_" x="-249" y="-2228" width="5535" height="3954"/>
			</defs>
			<use xlink:href="#SVGID_00000128484402550973452790000012678183356668462524_"  style="overflow:visible;fill:#0065FF;"/>
			<clipPath id="SVGID_00000173124022891567274870000005649046319804656319_">
				<use xlink:href="#SVGID_00000128484402550973452790000012678183356668462524_"  style="overflow:visible;"/>
			</clipPath>
			
				<rect x="564.17" y="289.34" style="clip-path:url(#SVGID_00000173124022891567274870000005649046319804656319_);fill:#0065FF;" width="26.17" height="37.36"/>
		</g>
	</g>
	<g>
		<defs>
			<path id="SVGID_00000043446511533141697620000006951408705746560681_" d="M601.02,295.11c-0.88-0.09-1.49-0.61-2.11-1.21
				c-4.83-4.51-9.67-9.01-14.5-13.43c-1.49-1.39-2.02-2.6-0.18-4.07c1.58-1.3,2.9-3.73,5.45-1.39c3.08,2.86,6.15,5.63,9.14,8.58
				c1.58,1.56,2.9,1.65,4.57,0c2.9-2.86,5.98-5.55,8.88-8.41c2.55-2.51,3.95-0.43,5.71,1.04c2.02,1.73,1.14,2.86-0.35,4.25
				c-4.75,4.42-9.49,8.84-14.24,13.26C602.78,294.42,602.08,295.2,601.02,295.11z"/>
		</defs>
		<use xlink:href="#SVGID_00000043446511533141697620000006951408705746560681_"  style="overflow:visible;fill:#0065FF;"/>
		<clipPath id="SVGID_00000173846646657304878220000003238084828467774397_">
			<use xlink:href="#SVGID_00000043446511533141697620000006951408705746560681_"  style="overflow:visible;"/>
		</clipPath>
		<g style="clip-path:url(#SVGID_00000173846646657304878220000003238084828467774397_);">
			<defs>
				<rect id="SVGID_00000119100541039071866710000012323697026076623290_" x="-249" y="-2228" width="5535" height="3954"/>
			</defs>
			<use xlink:href="#SVGID_00000119100541039071866710000012323697026076623290_"  style="overflow:visible;fill:#0065FF;"/>
			<clipPath id="SVGID_00000013184278885831003630000018182151405453587635_">
				<use xlink:href="#SVGID_00000119100541039071866710000012323697026076623290_"  style="overflow:visible;"/>
			</clipPath>
			
				<rect x="581.39" y="271.66" style="clip-path:url(#SVGID_00000013184278885831003630000018182151405453587635_);fill:#0065FF;" width="39.61" height="24.53"/>
		</g>
	</g>
	<g>
		<defs>
			<path id="SVGID_00000023244617382001610610000001929417154158293897_" d="M619.3,337.15c-0.7,1.56-2.11,2.69-3.6,3.55
				c-1.23,0.69-2.37,0.09-3.43-0.78c-2.81-2.69-5.8-5.2-8.44-7.97c-1.85-1.91-3.25-2.08-5.27-0.09c-2.64,2.69-5.45,5.2-8.26,7.71
				c-2.37,2.17-3.69,1.82-6.33-0.95c-2.11-2.17-0.35-3.29,1.05-4.51c4.39-4.16,8.96-8.23,13.27-12.39c1.93-1.91,3.52-2.08,5.54-0.09
				c4.48,4.42,9.14,8.58,13.71,12.91C618.34,335.15,619.39,335.76,619.3,337.15z"/>
		</defs>
		<use xlink:href="#SVGID_00000023244617382001610610000001929417154158293897_"  style="overflow:visible;fill:#0065FF;"/>
		<clipPath id="SVGID_00000122698977392182398060000017989091870397275068_">
			<use xlink:href="#SVGID_00000023244617382001610610000001929417154158293897_"  style="overflow:visible;"/>
		</clipPath>
		<g style="clip-path:url(#SVGID_00000122698977392182398060000017989091870397275068_);">
			<defs>
				<rect id="SVGID_00000027567563034551165600000007589194739151587207_" x="-249" y="-2228" width="5535" height="3954"/>
			</defs>
			<use xlink:href="#SVGID_00000027567563034551165600000007589194739151587207_"  style="overflow:visible;fill:#0065FF;"/>
			<clipPath id="SVGID_00000010990004187984866390000000020366431806806690_">
				<use xlink:href="#SVGID_00000027567563034551165600000007589194739151587207_"  style="overflow:visible;"/>
			</clipPath>
			
				<rect x="580.87" y="318.64" style="clip-path:url(#SVGID_00000010990004187984866390000000020366431806806690_);fill:#0065FF;" width="39.52" height="24.1"/>
		</g>
	</g>
	<g>
		<defs>
			<circle id="SVGID_00000038381251741548834330000010541068756247194004_" cx="601" cy="308" r="7"/>
		</defs>
		
			<use xlink:href="#SVGID_00000038381251741548834330000010541068756247194004_"  style="overflow:visible;fill-rule:evenodd;clip-rule:evenodd;fill:#0065FF;"/>
		<clipPath id="SVGID_00000039847537730614826380000009429789721625532317_">
			<use xlink:href="#SVGID_00000038381251741548834330000010541068756247194004_"  style="overflow:visible;"/>
		</clipPath>
		<g style="clip-path:url(#SVGID_00000039847537730614826380000009429789721625532317_);">
			<defs>
				<rect id="SVGID_00000046327257600069895080000002281859177863618695_" x="-249" y="-2228" width="5535" height="3954"/>
			</defs>
			<use xlink:href="#SVGID_00000046327257600069895080000002281859177863618695_"  style="overflow:visible;fill:#0065FF;"/>
			<clipPath id="SVGID_00000033343059759163388980000016037105423849510844_">
				<use xlink:href="#SVGID_00000046327257600069895080000002281859177863618695_"  style="overflow:visible;"/>
			</clipPath>
			
				<rect x="593" y="300" style="clip-path:url(#SVGID_00000033343059759163388980000016037105423849510844_);fill:#0065FF;" width="16" height="16"/>
		</g>
	</g>
</g>
<g id="Big_Banner">
	<g>
		<defs>
			<path id="SVGID_00000111190278230087573310000006449910633439664040_" d="M81.19,57H1235l-29.73,105.08
				c-6.51,23.02-27.53,38.92-51.45,38.92H0L29.73,95.92C36.25,72.89,57.26,57,81.19,57z"/>
		</defs>
		<clipPath id="SVGID_00000034787347243452048230000014222631119637160374_">
			<use xlink:href="#SVGID_00000111190278230087573310000006449910633439664040_"  style="overflow:visible;"/>
		</clipPath>
		
			<rect x="-1" y="56" style="clip-path:url(#SVGID_00000034787347243452048230000014222631119637160374_);fill:#0065FF;" width="1237" height="146"/>
		
			<path style="clip-path:url(#SVGID_00000034787347243452048230000014222631119637160374_);fill:none;stroke:#FFFFFF;stroke-width:24;stroke-miterlimit:5;" d="
			M81.19,57H1235l-29.73,105.08c-6.51,23.02-27.53,38.92-51.45,38.92H0L29.73,95.92C36.25,72.89,57.26,57,81.19,57z"/>
	</g>
</g>
<g id="Augusta_Christian">
	<g>
		<defs>
			<path id="SVGID_00000137817267922363092010000007748828060521661887_" d="M119.78,128.66v-18.99H92.42v18.99H119.78z M84.41,95
				h43.29l6.75,6.84v51.93l2.43,4.23h-19.53l2.43-4.23v-10.44H92.42v10.44l2.34,4.23H75.23l2.43-4.23v-51.93L84.41,95z"/>
		</defs>
		<clipPath id="SVGID_00000044892440419783220670000003809592067388588429_">
			<use xlink:href="#SVGID_00000137817267922363092010000007748828060521661887_"  style="overflow:visible;"/>
		</clipPath>
		<g style="clip-path:url(#SVGID_00000044892440419783220670000003809592067388588429_);">
			<defs>
				<rect id="SVGID_00000008128453398666383340000012295883476119988630_" x="-249" y="-2228" width="5535" height="3954"/>
			</defs>
			<clipPath id="SVGID_00000148649721030561250690000003372937705659433917_">
				<use xlink:href="#SVGID_00000008128453398666383340000012295883476119988630_"  style="overflow:visible;"/>
			</clipPath>
			
				<rect x="74.23" y="94" style="clip-path:url(#SVGID_00000148649721030561250690000003372937705659433917_);fill:#FFFFFF;" width="63.65" height="65"/>
		</g>
	</g>
	<g>
		<defs>
			<polygon id="SVGID_00000038374303154959116380000000717760326159563158_" points="150.05,151.25 150.05,99.23 147.62,95 
				167.15,95 164.72,99.23 164.72,143.33 192.08,143.33 192.08,99.23 189.74,95 209.18,95 206.84,99.23 206.84,151.25 200,158 
				156.8,158 			"/>
		</defs>
		<clipPath id="SVGID_00000139266019585880532830000016778166804955961732_">
			<use xlink:href="#SVGID_00000038374303154959116380000000717760326159563158_"  style="overflow:visible;"/>
		</clipPath>
		<g style="clip-path:url(#SVGID_00000139266019585880532830000016778166804955961732_);">
			<defs>
				<rect id="SVGID_00000075134191200050771370000002146140279615751067_" x="-249" y="-2228" width="5535" height="3954"/>
			</defs>
			<clipPath id="SVGID_00000098205722871504287100000010776921945159529352_">
				<use xlink:href="#SVGID_00000075134191200050771370000002146140279615751067_"  style="overflow:visible;"/>
			</clipPath>
			
				<rect x="146.62" y="94" style="clip-path:url(#SVGID_00000098205722871504287100000010776921945159529352_);fill:#FFFFFF;" width="63.56" height="65"/>
		</g>
	</g>
	<g>
		<defs>
			<polygon id="SVGID_00000024712166798442977230000007587367484479047857_" points="274.55,119.21 279.59,124.25 279.59,158 
				264.83,158 264.83,146.84 260.87,158 229.1,158 222.26,151.25 222.26,101.84 229.1,95 275.99,95 279.59,112.1 275.27,109.67 
				236.93,109.67 236.93,143.33 264.83,143.33 264.83,133.88 256.82,133.88 252.59,136.31 253.58,119.21 			"/>
		</defs>
		<clipPath id="SVGID_00000070114758900047023190000000949615892193815454_">
			<use xlink:href="#SVGID_00000024712166798442977230000007587367484479047857_"  style="overflow:visible;"/>
		</clipPath>
		<g style="clip-path:url(#SVGID_00000070114758900047023190000000949615892193815454_);">
			<defs>
				<rect id="SVGID_00000099637972629864312470000017264408577704381855_" x="-249" y="-2228" width="5535" height="3954"/>
			</defs>
			<clipPath id="SVGID_00000055673706012529642430000015370911751372171162_">
				<use xlink:href="#SVGID_00000099637972629864312470000017264408577704381855_"  style="overflow:visible;"/>
			</clipPath>
			
				<rect x="221.26" y="94" style="clip-path:url(#SVGID_00000055673706012529642430000015370911751372171162_);fill:#FFFFFF;" width="59.33" height="65"/>
		</g>
	</g>
	<g>
		<defs>
			<polygon id="SVGID_00000031889026366347751020000005546868000601092762_" points="294.65,151.25 294.65,99.23 292.22,95 
				311.75,95 309.32,99.23 309.32,143.33 336.68,143.33 336.68,99.23 334.34,95 353.78,95 351.44,99.23 351.44,151.25 344.6,158 
				301.4,158 			"/>
		</defs>
		<clipPath id="SVGID_00000142140323828725850680000004723382522836570770_">
			<use xlink:href="#SVGID_00000031889026366347751020000005546868000601092762_"  style="overflow:visible;"/>
		</clipPath>
		<g style="clip-path:url(#SVGID_00000142140323828725850680000004723382522836570770_);">
			<defs>
				<rect id="SVGID_00000053535090539955592930000010069472316070677181_" x="-249" y="-2228" width="5535" height="3954"/>
			</defs>
			<clipPath id="SVGID_00000183246726407193682600000005520789054342175362_">
				<use xlink:href="#SVGID_00000053535090539955592930000010069472316070677181_"  style="overflow:visible;"/>
			</clipPath>
			
				<rect x="291.22" y="94" style="clip-path:url(#SVGID_00000183246726407193682600000005520789054342175362_);fill:#FFFFFF;" width="63.56" height="65"/>
		</g>
	</g>
	<g>
		<defs>
			<polygon id="SVGID_00000058590635184856282340000009432935370241267386_" points="373.07,95 418.52,95 422.03,112.1 
				417.8,109.67 380.99,109.67 380.99,121.28 416.36,117.05 423.11,123.8 423.11,151.25 416.36,158 369.92,158 366.32,140.9 
				370.55,143.33 408.44,143.33 408.44,131.72 373.07,135.95 366.32,129.2 366.32,101.84 			"/>
		</defs>
		<clipPath id="SVGID_00000114779327101993459530000010075079174078512522_">
			<use xlink:href="#SVGID_00000058590635184856282340000009432935370241267386_"  style="overflow:visible;"/>
		</clipPath>
		<g style="clip-path:url(#SVGID_00000114779327101993459530000010075079174078512522_);">
			<defs>
				<rect id="SVGID_00000010304398384675987200000018317873518788449956_" x="-249" y="-2228" width="5535" height="3954"/>
			</defs>
			<clipPath id="SVGID_00000177446453664059533860000009308018762231143322_">
				<use xlink:href="#SVGID_00000010304398384675987200000018317873518788449956_"  style="overflow:visible;"/>
			</clipPath>
			
				<rect x="365.32" y="94" style="clip-path:url(#SVGID_00000177446453664059533860000009308018762231143322_);fill:#FFFFFF;" width="58.79" height="65"/>
		</g>
	</g>
	<g>
		<defs>
			<polygon id="SVGID_00000095319237384466918390000005395899961198092704_" points="473.09,109.67 473.09,153.77 475.52,158 
				455.99,158 458.42,153.77 458.42,109.67 436.82,109.67 432.59,112.1 436.19,95 495.41,95 498.92,112.1 494.69,109.67 			"/>
		</defs>
		<clipPath id="SVGID_00000061468695059638278500000010133320424259990432_">
			<use xlink:href="#SVGID_00000095319237384466918390000005395899961198092704_"  style="overflow:visible;"/>
		</clipPath>
		<g style="clip-path:url(#SVGID_00000061468695059638278500000010133320424259990432_);">
			<defs>
				<rect id="SVGID_00000133527813385675237710000008949967644869539002_" x="-249" y="-2228" width="5535" height="3954"/>
			</defs>
			<clipPath id="SVGID_00000072268334893078273850000007369855121681493409_">
				<use xlink:href="#SVGID_00000133527813385675237710000008949967644869539002_"  style="overflow:visible;"/>
			</clipPath>
			
				<rect x="431.59" y="94" style="clip-path:url(#SVGID_00000072268334893078273850000007369855121681493409_);fill:#FFFFFF;" width="68.33" height="65"/>
		</g>
	</g>
	<g>
		<defs>
			<path id="SVGID_00000005949742411412636070000005647490085369917618_" d="M552.14,128.66v-18.99h-27.36v18.99H552.14z M516.77,95
				h43.29l6.75,6.84v51.93l2.43,4.23h-19.53l2.43-4.23v-10.44h-27.36v10.44l2.34,4.23h-19.53l2.43-4.23v-51.93L516.77,95z"/>
		</defs>
		<clipPath id="SVGID_00000067204960063634831710000010503363394753107622_">
			<use xlink:href="#SVGID_00000005949742411412636070000005647490085369917618_"  style="overflow:visible;"/>
		</clipPath>
		<g style="clip-path:url(#SVGID_00000067204960063634831710000010503363394753107622_);">
			<defs>
				<rect id="SVGID_00000105423599797856530780000006629543301322092709_" x="-249" y="-2228" width="5535" height="3954"/>
			</defs>
			<clipPath id="SVGID_00000163754897670163268970000007976139315337680528_">
				<use xlink:href="#SVGID_00000105423599797856530780000006629543301322092709_"  style="overflow:visible;"/>
			</clipPath>
			
				<rect x="506.59" y="94" style="clip-path:url(#SVGID_00000163754897670163268970000007976139315337680528_);fill:#FFFFFF;" width="63.65" height="65"/>
		</g>
	</g>
	<g>
		<defs>
			<polygon id="SVGID_00000032643685876819476950000000109239847055357835_" points="626.45,95 671.9,95 675.41,112.1 
				671.18,109.67 634.37,109.67 634.37,143.33 671.18,143.33 675.41,140.9 671.9,158 626.45,158 619.7,151.25 619.7,101.84 			"/>
		</defs>
		<clipPath id="SVGID_00000121965397522367737120000002556250260257611157_">
			<use xlink:href="#SVGID_00000032643685876819476950000000109239847055357835_"  style="overflow:visible;"/>
		</clipPath>
		<g style="clip-path:url(#SVGID_00000121965397522367737120000002556250260257611157_);">
			<defs>
				<rect id="SVGID_00000018229116586901051470000012888694082526413698_" x="-249" y="-2228" width="5535" height="3954"/>
			</defs>
			<clipPath id="SVGID_00000028294079543812657960000014116858786957292433_">
				<use xlink:href="#SVGID_00000018229116586901051470000012888694082526413698_"  style="overflow:visible;"/>
			</clipPath>
			
				<rect x="618.7" y="94" style="clip-path:url(#SVGID_00000028294079543812657960000014116858786957292433_);fill:#FFFFFF;" width="57.71" height="65"/>
		</g>
	</g>
	<g>
		<defs>
			<polygon id="SVGID_00000012433964056198438990000009378066310065483438_" points="688.76,153.77 688.76,99.23 686.33,95 
				705.86,95 703.43,99.23 703.43,123.62 730.07,123.62 730.07,99.23 727.64,95 747.17,95 744.74,99.23 744.74,153.77 747.17,158 
				727.64,158 730.07,153.77 730.07,138.29 703.43,138.29 703.43,153.77 705.86,158 686.33,158 			"/>
		</defs>
		<clipPath id="SVGID_00000131366560336297935390000008941976492784328383_">
			<use xlink:href="#SVGID_00000012433964056198438990000009378066310065483438_"  style="overflow:visible;"/>
		</clipPath>
		<g style="clip-path:url(#SVGID_00000131366560336297935390000008941976492784328383_);">
			<defs>
				<rect id="SVGID_00000101786907477658853910000011317665174333791928_" x="-249" y="-2228" width="5535" height="3954"/>
			</defs>
			<clipPath id="SVGID_00000130616417128993131350000012266467230174557087_">
				<use xlink:href="#SVGID_00000101786907477658853910000011317665174333791928_"  style="overflow:visible;"/>
			</clipPath>
			
				<rect x="685.33" y="94" style="clip-path:url(#SVGID_00000130616417128993131350000012266467230174557087_);fill:#FFFFFF;" width="62.84" height="65"/>
		</g>
	</g>
	<g>
		<defs>
			<path id="SVGID_00000061465685396308504370000011892817190288400567_" d="M776.09,109.67v13.5h24.57l2.07-1.98v-9.54l-2.07-1.98
				H776.09z M758.99,95h51.66l6.75,6.84v21.87l-6.75,6.84l6.75,6.75v16.47l2.43,4.23H800.3l2.43-4.23v-15.93h-26.64v15.93l2.43,4.23
				h-19.53l2.43-4.23V99.23L758.99,95z"/>
		</defs>
		<clipPath id="SVGID_00000073709168030091584160000004478593937775186562_">
			<use xlink:href="#SVGID_00000061465685396308504370000011892817190288400567_"  style="overflow:visible;"/>
		</clipPath>
		<g style="clip-path:url(#SVGID_00000073709168030091584160000004478593937775186562_);">
			<defs>
				<rect id="SVGID_00000009573147535188587230000012177234835152437175_" x="-249" y="-2228" width="5535" height="3954"/>
			</defs>
			<clipPath id="SVGID_00000142163558068742613210000014613026732840653744_">
				<use xlink:href="#SVGID_00000009573147535188587230000012177234835152437175_"  style="overflow:visible;"/>
			</clipPath>
			
				<rect x="757.99" y="94" style="clip-path:url(#SVGID_00000142163558068742613210000014613026732840653744_);fill:#FFFFFF;" width="62.84" height="65"/>
		</g>
	</g>
	<g>
		<defs>
			<polygon id="SVGID_00000163762838173494770600000008247847983558379696_" points="833.63,153.77 833.63,99.23 831.2,95 
				850.73,95 848.39,99.23 848.39,153.77 850.73,158 831.2,158 			"/>
		</defs>
		<clipPath id="SVGID_00000068639443075029143410000010753075321057555131_">
			<use xlink:href="#SVGID_00000163762838173494770600000008247847983558379696_"  style="overflow:visible;"/>
		</clipPath>
		<g style="clip-path:url(#SVGID_00000068639443075029143410000010753075321057555131_);">
			<defs>
				<rect id="SVGID_00000008844450846851208270000016456769529304533942_" x="-249" y="-2228" width="5535" height="3954"/>
			</defs>
			<clipPath id="SVGID_00000176723421075341409570000010638881698038578094_">
				<use xlink:href="#SVGID_00000008844450846851208270000016456769529304533942_"  style="overflow:visible;"/>
			</clipPath>
			
				<rect x="830.2" y="94" style="clip-path:url(#SVGID_00000176723421075341409570000010638881698038578094_);fill:#FFFFFF;" width="21.53" height="65"/>
		</g>
	</g>
	<g>
		<defs>
			<polygon id="SVGID_00000167398643282221523640000003606485341980443271_" points="870.29,95 915.74,95 919.25,112.1 
				915.02,109.67 878.21,109.67 878.21,121.28 913.58,117.05 920.33,123.8 920.33,151.25 913.58,158 867.14,158 863.54,140.9 
				867.77,143.33 905.66,143.33 905.66,131.72 870.29,135.95 863.54,129.2 863.54,101.84 			"/>
		</defs>
		<clipPath id="SVGID_00000161630975514193953840000010482695767751024048_">
			<use xlink:href="#SVGID_00000167398643282221523640000003606485341980443271_"  style="overflow:visible;"/>
		</clipPath>
		<g style="clip-path:url(#SVGID_00000161630975514193953840000010482695767751024048_);">
			<defs>
				<rect id="SVGID_00000063605573581163074980000004801709097593616054_" x="-249" y="-2228" width="5535" height="3954"/>
			</defs>
			<clipPath id="SVGID_00000042718079826080686350000000973489594650346906_">
				<use xlink:href="#SVGID_00000063605573581163074980000004801709097593616054_"  style="overflow:visible;"/>
			</clipPath>
			
				<rect x="862.54" y="94" style="clip-path:url(#SVGID_00000042718079826080686350000000973489594650346906_);fill:#FFFFFF;" width="58.79" height="65"/>
		</g>
	</g>
	<g>
		<defs>
			<polygon id="SVGID_00000144322363956435895140000013440490010148033673_" points="970.31,109.67 970.31,153.77 972.74,158 
				953.21,158 955.64,153.77 955.64,109.67 934.04,109.67 929.81,112.1 933.41,95 992.63,95 996.14,112.1 991.91,109.67 			"/>
		</defs>
		<clipPath id="SVGID_00000015337604746375388950000002753180623302262144_">
			<use xlink:href="#SVGID_00000144322363956435895140000013440490010148033673_"  style="overflow:visible;"/>
		</clipPath>
		<g style="clip-path:url(#SVGID_00000015337604746375388950000002753180623302262144_);">
			<defs>
				<rect id="SVGID_00000112629373569591541220000005605980639127201719_" x="-249" y="-2228" width="5535" height="3954"/>
			</defs>
			<clipPath id="SVGID_00000006682743723780142660000010493774150523457438_">
				<use xlink:href="#SVGID_00000112629373569591541220000005605980639127201719_"  style="overflow:visible;"/>
			</clipPath>
			
				<rect x="928.81" y="94" style="clip-path:url(#SVGID_00000006682743723780142660000010493774150523457438_);fill:#FFFFFF;" width="68.33" height="65"/>
		</g>
	</g>
	<g>
		<defs>
			<polygon id="SVGID_00000077320304391082921300000004145852871074867872_" points="1007.42,153.77 1007.42,99.23 1004.99,95 
				1024.52,95 1022.18,99.23 1022.18,153.77 1024.52,158 1004.99,158 			"/>
		</defs>
		<clipPath id="SVGID_00000163791159272117198890000006791409459437591472_">
			<use xlink:href="#SVGID_00000077320304391082921300000004145852871074867872_"  style="overflow:visible;"/>
		</clipPath>
		<g style="clip-path:url(#SVGID_00000163791159272117198890000006791409459437591472_);">
			<defs>
				<rect id="SVGID_00000079463683597685131910000005691046176445444758_" x="-249" y="-2228" width="5535" height="3954"/>
			</defs>
			<clipPath id="SVGID_00000062910671379130631830000010498027387091516341_">
				<use xlink:href="#SVGID_00000079463683597685131910000005691046176445444758_"  style="overflow:visible;"/>
			</clipPath>
			
				<rect x="1003.99" y="94" style="clip-path:url(#SVGID_00000062910671379130631830000010498027387091516341_);fill:#FFFFFF;" width="21.53" height="65"/>
		</g>
	</g>
	<g>
		<defs>
			<path id="SVGID_00000048471572492226121230000004635609871194078133_" d="M1080.8,128.66v-18.99h-27.36v18.99H1080.8z
				 M1045.43,95h43.29l6.75,6.84v51.93l2.43,4.23h-19.53l2.43-4.23v-10.44h-27.36v10.44l2.34,4.23h-19.53l2.43-4.23v-51.93
				L1045.43,95z"/>
		</defs>
		<clipPath id="SVGID_00000144338540761490312400000006017919546540424584_">
			<use xlink:href="#SVGID_00000048471572492226121230000004635609871194078133_"  style="overflow:visible;"/>
		</clipPath>
		<g style="clip-path:url(#SVGID_00000144338540761490312400000006017919546540424584_);">
			<defs>
				<rect id="SVGID_00000138567250642626825560000016681573089985850538_" x="-249" y="-2228" width="5535" height="3954"/>
			</defs>
			<clipPath id="SVGID_00000159469274673745393580000001205062846910404496_">
				<use xlink:href="#SVGID_00000138567250642626825560000016681573089985850538_"  style="overflow:visible;"/>
			</clipPath>
			
				<rect x="1035.25" y="94" style="clip-path:url(#SVGID_00000159469274673745393580000001205062846910404496_);fill:#FFFFFF;" width="63.65" height="65"/>
		</g>
	</g>
	<g>
		<defs>
			<polygon id="SVGID_00000034085434928697366030000011616767306629715591_" points="1126.64,153.77 1129.07,158 1109.54,158 
				1111.97,153.77 1111.97,99.23 1109.54,95 1127.45,95 1156.79,132.35 1156.79,99.23 1154.27,95 1173.89,95 1171.37,99.23 
				1171.37,153.77 1173.89,158 1155.98,158 1126.64,120.74 			"/>
		</defs>
		<clipPath id="SVGID_00000111876115768608995260000015545999446874947241_">
			<use xlink:href="#SVGID_00000034085434928697366030000011616767306629715591_"  style="overflow:visible;"/>
		</clipPath>
		<g style="clip-path:url(#SVGID_00000111876115768608995260000015545999446874947241_);">
			<defs>
				<rect id="SVGID_00000034776035843098639730000007295814168255805574_" x="-249" y="-2228" width="5535" height="3954"/>
			</defs>
			<clipPath id="SVGID_00000023991485312693079920000012988115636812803971_">
				<use xlink:href="#SVGID_00000034776035843098639730000007295814168255805574_"  style="overflow:visible;"/>
			</clipPath>
			
				<rect x="1108.54" y="94" style="clip-path:url(#SVGID_00000023991485312693079920000012988115636812803971_);fill:#FFFFFF;" width="66.35" height="65"/>
		</g>
	</g>
</g>
<g id="Small_Banner">
	<g>
		<defs>
			<path id="SVGID_00000116212440680699120320000016881352301427456170_" d="M323.23,199c94.21-13.33,187.41-20,279.61-20
				s184.33,6.67,276.39,20l-19.31,47.5l19.31,39.5c-91.13-13.92-183.26-20.88-276.39-20.88S416.5,274.75,323.23,294l19.31-48.93
				L323.23,199z"/>
		</defs>
		<clipPath id="SVGID_00000151541657317496442760000007903903960713937033_">
			<use xlink:href="#SVGID_00000116212440680699120320000016881352301427456170_"  style="overflow:visible;"/>
		</clipPath>
		
			<rect x="322" y="178" style="clip-path:url(#SVGID_00000151541657317496442760000007903903960713937033_);fill:#0065FF;" width="559" height="117"/>
		
			<path style="clip-path:url(#SVGID_00000151541657317496442760000007903903960713937033_);fill:none;stroke:#FFFFFF;stroke-width:22;stroke-miterlimit:5;" d="
			M323.23,199c94.21-13.33,187.41-20,279.61-20s184.33,6.67,276.39,20l-19.31,47.5l19.31,39.5
			c-91.13-13.92-183.26-20.88-276.39-20.88S416.5,274.75,323.23,294l19.31-48.93L323.23,199z"/>
	</g>
</g>
<g id="Academy">
	<g>
		<defs>
			<path id="SVGID_00000070835825656917907830000012036605270268346805_" d="M455.86,228.19l-1.03-12.62l-18.18,1.49l1.03,12.62
				L455.86,228.19z M430.52,207.74l28.76-2.35l4.86,4.18l2.82,34.5l1.84,2.68l-12.98,1.06l1.38-2.94l-0.57-6.94l-18.18,1.49
				l0.57,6.94l1.78,2.68l-12.98,1.06l1.38-2.94l-2.82-34.5L430.52,207.74z"/>
		</defs>
		<clipPath id="SVGID_00000106869510857287124620000002914133609446805685_">
			<use xlink:href="#SVGID_00000070835825656917907830000012036605270268346805_"  style="overflow:visible;"/>
		</clipPath>
		<g style="clip-path:url(#SVGID_00000106869510857287124620000002914133609446805685_);">
			<defs>
				<rect id="SVGID_00000018213426065592922710000007679471218904249266_" x="-249" y="-2228" width="5535" height="3954"/>
			</defs>
			<clipPath id="SVGID_00000160874095981672264040000012030967041803040642_">
				<use xlink:href="#SVGID_00000018213426065592922710000007679471218904249266_"  style="overflow:visible;"/>
			</clipPath>
			
				<rect x="425.41" y="204.39" style="clip-path:url(#SVGID_00000160874095981672264040000012030967041803040642_);fill:#FFFFFF;" width="44.4" height="46.71"/>
		</g>
	</g>
	<g>
		<defs>
			<polygon id="SVGID_00000085242382989804221690000003609217548327787436_" points="482.61,203.85 512.87,202.14 515.85,213.38 
				512.94,211.93 488.44,213.31 489.71,235.72 514.21,234.33 516.93,232.55 515.24,244.07 484.99,245.78 480.24,241.54 
				478.38,208.66 			"/>
		</defs>
		<clipPath id="SVGID_00000143580954109246404750000015260097870812309121_">
			<use xlink:href="#SVGID_00000085242382989804221690000003609217548327787436_"  style="overflow:visible;"/>
		</clipPath>
		<g style="clip-path:url(#SVGID_00000143580954109246404750000015260097870812309121_);">
			<defs>
				<rect id="SVGID_00000132798862324682502380000007495203788075320511_" x="-249" y="-2228" width="5535" height="3954"/>
			</defs>
			<clipPath id="SVGID_00000157994774904527318710000000723796812931652029_">
				<use xlink:href="#SVGID_00000132798862324682502380000007495203788075320511_"  style="overflow:visible;"/>
			</clipPath>
			
				<rect x="477.38" y="201.14" style="clip-path:url(#SVGID_00000157994774904527318710000000723796812931652029_);fill:#FFFFFF;" width="40.55" height="45.65"/>
		</g>
	</g>
	<g>
		<defs>
			<path id="SVGID_00000117655177740828012750000004682224732681510321_" d="M556.82,223.11l-0.39-12.65l-18.23,0.56l0.39,12.65
				L556.82,223.11z M532.56,201.4l28.85-0.89l4.64,4.42l1.07,34.6l1.71,2.77l-13.01,0.4l1.53-2.87l-0.21-6.96l-18.23,0.56l0.21,6.96
				l1.65,2.77l-13.01,0.4l1.53-2.87l-1.07-34.6L532.56,201.4z"/>
		</defs>
		<clipPath id="SVGID_00000098920273870750222660000001054715300944309950_">
			<use xlink:href="#SVGID_00000117655177740828012750000004682224732681510321_"  style="overflow:visible;"/>
		</clipPath>
		<g style="clip-path:url(#SVGID_00000098920273870750222660000001054715300944309950_);">
			<defs>
				<rect id="SVGID_00000174604463355773136440000009771704225220575880_" x="-249" y="-2228" width="5535" height="3954"/>
			</defs>
			<clipPath id="SVGID_00000129920297607883018890000010459453742324980615_">
				<use xlink:href="#SVGID_00000174604463355773136440000009771704225220575880_"  style="overflow:visible;"/>
			</clipPath>
			
				<rect x="526.74" y="199.51" style="clip-path:url(#SVGID_00000129920297607883018890000010459453742324980615_);fill:#FFFFFF;" width="43.08" height="45.06"/>
		</g>
	</g>
	<g>
		<defs>
			<path id="SVGID_00000152252684396566271500000012730584410714772118_" d="M590.9,209.92l0.1,22.44l16.38-0.07l1.31-1.39
				l-0.09-19.74l-1.33-1.31L590.9,209.92z M579.39,200.19l34.44-0.16l4.52,4.54l0.15,32.94l-4.48,4.52l-34.44,0.16l1.61-2.83
				l-0.17-36.36L579.39,200.19z"/>
		</defs>
		<clipPath id="SVGID_00000034768008221298137010000014978424346388794781_">
			<use xlink:href="#SVGID_00000152252684396566271500000012730584410714772118_"  style="overflow:visible;"/>
		</clipPath>
		<g style="clip-path:url(#SVGID_00000034768008221298137010000014978424346388794781_);">
			<defs>
				<rect id="SVGID_00000021802276960215494870000010617519015986536623_" x="-249" y="-2228" width="5535" height="3954"/>
			</defs>
			<clipPath id="SVGID_00000009567948126021129060000002636616012854974140_">
				<use xlink:href="#SVGID_00000021802276960215494870000010617519015986536623_"  style="overflow:visible;"/>
			</clipPath>
			
				<rect x="578.39" y="199.04" style="clip-path:url(#SVGID_00000009567948126021129060000002636616012854974140_);fill:#FFFFFF;" width="41.11" height="44.16"/>
		</g>
	</g>
	<g>
		<defs>
			<polygon id="SVGID_00000140696902298027846140000003999256519485731733_" points="631.34,200.21 667.99,201.02 670.14,212.47 
				667.29,210.78 642.58,210.24 642.44,216.6 658.28,216.95 660.42,228.4 657.64,226.72 642.22,226.38 642.08,232.67 666.8,233.22 
				669.71,231.66 667.06,243.01 630.41,242.2 632.09,239.42 632.9,203.06 			"/>
		</defs>
		<clipPath id="SVGID_00000173872562857851515480000009058280682163522218_">
			<use xlink:href="#SVGID_00000140696902298027846140000003999256519485731733_"  style="overflow:visible;"/>
		</clipPath>
		<g style="clip-path:url(#SVGID_00000173872562857851515480000009058280682163522218_);">
			<defs>
				<rect id="SVGID_00000063601298259513504800000010761291328949772734_" x="-249" y="-2228" width="5535" height="3954"/>
			</defs>
			<clipPath id="SVGID_00000040536218538899341590000012276276385379356603_">
				<use xlink:href="#SVGID_00000063601298259513504800000010761291328949772734_"  style="overflow:visible;"/>
			</clipPath>
			
				<rect x="629.41" y="199.21" style="clip-path:url(#SVGID_00000040536218538899341590000012276276385379356603_);fill:#FFFFFF;" width="41.73" height="44.8"/>
		</g>
	</g>
	<g>
		<defs>
			<polygon id="SVGID_00000162330529165908432460000000175411036679544977_" points="681.44,240.77 683.3,204.46 681.83,201.56 
				699.86,202.48 706.67,229.15 716.22,203.32 734.2,204.25 732.5,206.98 730.63,243.29 732.05,246.19 719.1,245.53 720.81,242.79 
				722.3,213.73 711.82,242.33 712.39,245.18 699.39,244.51 700.25,241.74 692.76,212.21 691.26,241.27 692.68,244.17 679.67,243.5 
							"/>
		</defs>
		<clipPath id="SVGID_00000119818129224148940940000005156881329924075429_">
			<use xlink:href="#SVGID_00000162330529165908432460000000175411036679544977_"  style="overflow:visible;"/>
		</clipPath>
		<g style="clip-path:url(#SVGID_00000119818129224148940940000005156881329924075429_);">
			<defs>
				<rect id="SVGID_00000179643765305704745020000005577874514837207973_" x="-249" y="-2228" width="5535" height="3954"/>
			</defs>
			<clipPath id="SVGID_00000010285180766374700740000006201384906945217695_">
				<use xlink:href="#SVGID_00000179643765305704745020000005577874514837207973_"  style="overflow:visible;"/>
			</clipPath>
			
				<rect x="678.67" y="200.56" style="clip-path:url(#SVGID_00000010285180766374700740000006201384906945217695_);fill:#FFFFFF;" width="56.52" height="46.63"/>
		</g>
	</g>
	<g>
		<defs>
			<polygon id="SVGID_00000059272062197996040990000013814705971529293981_" points="744.9,222.44 746.08,207.96 744.7,205.02 
				757.67,206.08 755.83,208.76 754.98,219.16 763.4,228.16 773.22,220.65 774.07,210.25 772.68,207.3 785.66,208.36 783.82,211.04 
				782.64,225.51 767.61,236.99 766.87,246.14 768.25,249.08 755.28,248.02 757.12,245.35 757.87,236.2 			"/>
		</defs>
		<clipPath id="SVGID_00000043418609703584059950000005017927474486533307_">
			<use xlink:href="#SVGID_00000059272062197996040990000013814705971529293981_"  style="overflow:visible;"/>
		</clipPath>
		<g style="clip-path:url(#SVGID_00000043418609703584059950000005017927474486533307_);">
			<defs>
				<rect id="SVGID_00000162348370043855990920000009131818079785674371_" x="-249" y="-2228" width="5535" height="3954"/>
			</defs>
			<clipPath id="SVGID_00000183236067219768805820000015219575547546430880_">
				<use xlink:href="#SVGID_00000162348370043855990920000009131818079785674371_"  style="overflow:visible;"/>
			</clipPath>
			
				<rect x="743.7" y="204.02" style="clip-path:url(#SVGID_00000183236067219768805820000015219575547546430880_);fill:#FFFFFF;" width="42.96" height="46.06"/>
		</g>
	</g>
</g>
</svg>
